<mxfile host="Electron" modified="2023-06-27T08:45:33.062Z" agent="Mozilla/5.0 (Windows NT 10.0; Win64; x64) AppleWebKit/537.36 (KHTML, like Gecko) draw.io/21.2.8 Chrome/112.0.5615.165 Electron/24.2.0 Safari/537.36" etag="v-8O1_ID69Lt_DQqnwJ9" version="21.2.8" type="device">
  <diagram name="Page-1" id="q2yg_rwNLsKE4wu6kSVt">
    <mxGraphModel dx="780" dy="1613" grid="1" gridSize="10" guides="1" tooltips="1" connect="1" arrows="1" fold="1" page="1" pageScale="1" pageWidth="850" pageHeight="1100" math="0" shadow="0">
      <root>
        <mxCell id="0" />
        <mxCell id="1" parent="0" />
        <mxCell id="UDLZSdtrr7WXOxklAURp-2" value="" style="rounded=0;whiteSpace=wrap;html=1;rotation=90;fillColor=#b1ddf0;strokeColor=#10739e;" parent="1" vertex="1">
          <mxGeometry x="68.3" y="126.41" width="657.7" height="399.51" as="geometry" />
        </mxCell>
        <mxCell id="UDLZSdtrr7WXOxklAURp-3" value="Admin" style="shape=umlActor;verticalLabelPosition=bottom;verticalAlign=top;html=1;outlineConnect=0;" parent="1" vertex="1">
          <mxGeometry x="40" y="240" width="30" height="60" as="geometry" />
        </mxCell>
        <mxCell id="UDLZSdtrr7WXOxklAURp-4" value="Customer" style="shape=umlActor;verticalLabelPosition=bottom;verticalAlign=top;html=1;outlineConnect=0;" parent="1" vertex="1">
          <mxGeometry x="740" y="270" width="30" height="60" as="geometry" />
        </mxCell>
        <mxCell id="UDLZSdtrr7WXOxklAURp-5" value="update Food" style="ellipse;whiteSpace=wrap;html=1;" parent="1" vertex="1">
          <mxGeometry x="325" y="60" width="100" height="40" as="geometry" />
        </mxCell>
        <mxCell id="UDLZSdtrr7WXOxklAURp-6" value="Login" style="ellipse;whiteSpace=wrap;html=1;" parent="1" vertex="1">
          <mxGeometry x="328" y="330" width="100" height="40" as="geometry" />
        </mxCell>
        <mxCell id="UDLZSdtrr7WXOxklAURp-8" value="Add Food" style="ellipse;whiteSpace=wrap;html=1;" parent="1" vertex="1">
          <mxGeometry x="320" y="10" width="100" height="40" as="geometry" />
        </mxCell>
        <mxCell id="UDLZSdtrr7WXOxklAURp-9" value="view orders" style="ellipse;whiteSpace=wrap;html=1;" parent="1" vertex="1">
          <mxGeometry x="318.75" y="160" width="100" height="40" as="geometry" />
        </mxCell>
        <mxCell id="UDLZSdtrr7WXOxklAURp-10" value="" style="endArrow=classic;html=1;rounded=0;entryX=0;entryY=0.5;entryDx=0;entryDy=0;" parent="1" target="UDLZSdtrr7WXOxklAURp-6" edge="1">
          <mxGeometry width="50" height="50" relative="1" as="geometry">
            <mxPoint x="70" y="260" as="sourcePoint" />
            <mxPoint x="190" y="90" as="targetPoint" />
          </mxGeometry>
        </mxCell>
        <mxCell id="UDLZSdtrr7WXOxklAURp-11" value="" style="endArrow=classic;html=1;rounded=0;entryX=1;entryY=0.5;entryDx=0;entryDy=0;exitX=0;exitY=0.3333333333333333;exitDx=0;exitDy=0;exitPerimeter=0;" parent="1" source="UDLZSdtrr7WXOxklAURp-4" target="UDLZSdtrr7WXOxklAURp-6" edge="1">
          <mxGeometry width="50" height="50" relative="1" as="geometry">
            <mxPoint x="600" y="190" as="sourcePoint" />
            <mxPoint x="650" y="140" as="targetPoint" />
          </mxGeometry>
        </mxCell>
        <mxCell id="UDLZSdtrr7WXOxklAURp-14" value="Delete Food" style="ellipse;whiteSpace=wrap;html=1;" parent="1" vertex="1">
          <mxGeometry x="322.5" y="110" width="100" height="40" as="geometry" />
        </mxCell>
        <mxCell id="UDLZSdtrr7WXOxklAURp-15" value="Filter by text" style="ellipse;whiteSpace=wrap;html=1;" parent="1" vertex="1">
          <mxGeometry x="477.5" y="340" width="100" height="40" as="geometry" />
        </mxCell>
        <mxCell id="UDLZSdtrr7WXOxklAURp-16" value="Filter by Rating" style="ellipse;whiteSpace=wrap;html=1;" parent="1" vertex="1">
          <mxGeometry x="477.5" y="390" width="100" height="40" as="geometry" />
        </mxCell>
        <mxCell id="UDLZSdtrr7WXOxklAURp-17" value="Add Cart" style="ellipse;whiteSpace=wrap;html=1;" parent="1" vertex="1">
          <mxGeometry x="477.5" y="440" width="100" height="40" as="geometry" />
        </mxCell>
        <mxCell id="UDLZSdtrr7WXOxklAURp-18" value="Update Cart" style="ellipse;whiteSpace=wrap;html=1;" parent="1" vertex="1">
          <mxGeometry x="477.5" y="490" width="100" height="40" as="geometry" />
        </mxCell>
        <mxCell id="UDLZSdtrr7WXOxklAURp-19" value="Place Order" style="ellipse;whiteSpace=wrap;html=1;" parent="1" vertex="1">
          <mxGeometry x="477.5" y="540" width="100" height="40" as="geometry" />
        </mxCell>
        <mxCell id="UDLZSdtrr7WXOxklAURp-20" value="Rate Food" style="ellipse;whiteSpace=wrap;html=1;" parent="1" vertex="1">
          <mxGeometry x="477.5" y="590" width="100" height="40" as="geometry" />
        </mxCell>
        <mxCell id="UDLZSdtrr7WXOxklAURp-21" value="" style="endArrow=classic;html=1;rounded=0;entryX=1;entryY=0.5;entryDx=0;entryDy=0;exitX=0;exitY=0.3333333333333333;exitDx=0;exitDy=0;exitPerimeter=0;" parent="1" source="UDLZSdtrr7WXOxklAURp-4" target="UDLZSdtrr7WXOxklAURp-15" edge="1">
          <mxGeometry width="50" height="50" relative="1" as="geometry">
            <mxPoint x="750" y="300" as="sourcePoint" />
            <mxPoint x="565.3553390593272" y="418.78679656440363" as="targetPoint" />
          </mxGeometry>
        </mxCell>
        <mxCell id="UDLZSdtrr7WXOxklAURp-22" value="" style="endArrow=classic;html=1;rounded=0;entryX=1;entryY=0.5;entryDx=0;entryDy=0;exitX=0;exitY=0.3333333333333333;exitDx=0;exitDy=0;exitPerimeter=0;" parent="1" source="UDLZSdtrr7WXOxklAURp-4" target="UDLZSdtrr7WXOxklAURp-17" edge="1">
          <mxGeometry width="50" height="50" relative="1" as="geometry">
            <mxPoint x="760" y="310" as="sourcePoint" />
            <mxPoint x="579.2" y="496.0799999999999" as="targetPoint" />
          </mxGeometry>
        </mxCell>
        <mxCell id="UDLZSdtrr7WXOxklAURp-23" value="" style="endArrow=classic;html=1;rounded=0;entryX=1;entryY=0.5;entryDx=0;entryDy=0;" parent="1" target="UDLZSdtrr7WXOxklAURp-19" edge="1">
          <mxGeometry width="50" height="50" relative="1" as="geometry">
            <mxPoint x="740" y="290" as="sourcePoint" />
            <mxPoint x="580" y="630" as="targetPoint" />
          </mxGeometry>
        </mxCell>
        <mxCell id="UDLZSdtrr7WXOxklAURp-24" value="" style="endArrow=classic;html=1;rounded=0;entryX=1;entryY=0.5;entryDx=0;entryDy=0;" parent="1" target="UDLZSdtrr7WXOxklAURp-20" edge="1">
          <mxGeometry width="50" height="50" relative="1" as="geometry">
            <mxPoint x="740" y="290" as="sourcePoint" />
            <mxPoint x="590" y="640" as="targetPoint" />
          </mxGeometry>
        </mxCell>
        <mxCell id="UDLZSdtrr7WXOxklAURp-25" value="" style="endArrow=classic;html=1;rounded=0;entryX=0;entryY=0.5;entryDx=0;entryDy=0;" parent="1" target="UDLZSdtrr7WXOxklAURp-9" edge="1">
          <mxGeometry width="50" height="50" relative="1" as="geometry">
            <mxPoint x="70" y="260" as="sourcePoint" />
            <mxPoint x="320" y="80" as="targetPoint" />
          </mxGeometry>
        </mxCell>
        <mxCell id="UDLZSdtrr7WXOxklAURp-33" value="" style="endArrow=classic;html=1;rounded=0;entryX=0;entryY=0.5;entryDx=0;entryDy=0;" parent="1" target="UDLZSdtrr7WXOxklAURp-8" edge="1">
          <mxGeometry width="50" height="50" relative="1" as="geometry">
            <mxPoint x="70" y="260" as="sourcePoint" />
            <mxPoint x="214.79999999999995" y="120.92000000000007" as="targetPoint" />
          </mxGeometry>
        </mxCell>
        <mxCell id="UDLZSdtrr7WXOxklAURp-34" value="Chef" style="shape=umlActor;verticalLabelPosition=bottom;verticalAlign=top;html=1;outlineConnect=0;" parent="1" vertex="1">
          <mxGeometry x="40" y="500" width="30" height="60" as="geometry" />
        </mxCell>
        <mxCell id="UDLZSdtrr7WXOxklAURp-37" value="" style="endArrow=classic;html=1;rounded=0;entryX=0;entryY=0.5;entryDx=0;entryDy=0;exitX=1;exitY=0.3333333333333333;exitDx=0;exitDy=0;exitPerimeter=0;" parent="1" source="UDLZSdtrr7WXOxklAURp-34" target="UDLZSdtrr7WXOxklAURp-47" edge="1">
          <mxGeometry width="50" height="50" relative="1" as="geometry">
            <mxPoint x="70" y="610" as="sourcePoint" />
            <mxPoint x="215" y="660" as="targetPoint" />
          </mxGeometry>
        </mxCell>
        <mxCell id="UDLZSdtrr7WXOxklAURp-38" value="" style="endArrow=classic;html=1;rounded=0;entryX=0;entryY=0.5;entryDx=0;entryDy=0;exitX=1;exitY=0.3333333333333333;exitDx=0;exitDy=0;exitPerimeter=0;" parent="1" source="UDLZSdtrr7WXOxklAURp-34" target="UDLZSdtrr7WXOxklAURp-39" edge="1">
          <mxGeometry width="50" height="50" relative="1" as="geometry">
            <mxPoint x="65" y="630" as="sourcePoint" />
            <mxPoint x="212.29999999999995" y="779.4499999999998" as="targetPoint" />
          </mxGeometry>
        </mxCell>
        <mxCell id="UDLZSdtrr7WXOxklAURp-39" value="Request Item" style="ellipse;whiteSpace=wrap;html=1;" parent="1" vertex="1">
          <mxGeometry x="260" y="480" width="100" height="40" as="geometry" />
        </mxCell>
        <mxCell id="UDLZSdtrr7WXOxklAURp-40" value="Inventory&lt;br&gt;Update Request" style="ellipse;whiteSpace=wrap;html=1;" parent="1" vertex="1">
          <mxGeometry x="318.75" y="210" width="100" height="40" as="geometry" />
        </mxCell>
        <mxCell id="UDLZSdtrr7WXOxklAURp-41" value="View Inventory Request&lt;br&gt;status" style="ellipse;whiteSpace=wrap;html=1;" parent="1" vertex="1">
          <mxGeometry x="318.75" y="260" width="100" height="60" as="geometry" />
        </mxCell>
        <mxCell id="UDLZSdtrr7WXOxklAURp-42" value="update order&lt;br&gt;status" style="ellipse;whiteSpace=wrap;html=1;" parent="1" vertex="1">
          <mxGeometry x="260" y="530" width="100" height="40" as="geometry" />
        </mxCell>
        <mxCell id="UDLZSdtrr7WXOxklAURp-45" value="" style="endArrow=classic;html=1;rounded=0;entryX=0.019;entryY=0.367;entryDx=0;entryDy=0;entryPerimeter=0;" parent="1" target="UDLZSdtrr7WXOxklAURp-41" edge="1">
          <mxGeometry width="50" height="50" relative="1" as="geometry">
            <mxPoint x="70" y="260" as="sourcePoint" />
            <mxPoint x="230" y="290" as="targetPoint" />
          </mxGeometry>
        </mxCell>
        <mxCell id="UDLZSdtrr7WXOxklAURp-46" value="" style="endArrow=classic;html=1;rounded=0;entryX=0;entryY=0.5;entryDx=0;entryDy=0;" parent="1" target="UDLZSdtrr7WXOxklAURp-40" edge="1">
          <mxGeometry width="50" height="50" relative="1" as="geometry">
            <mxPoint x="70" y="260" as="sourcePoint" />
            <mxPoint x="264" y="588" as="targetPoint" />
          </mxGeometry>
        </mxCell>
        <mxCell id="UDLZSdtrr7WXOxklAURp-47" value="View Request&lt;br&gt;status" style="ellipse;whiteSpace=wrap;html=1;" parent="1" vertex="1">
          <mxGeometry x="260" y="430" width="100" height="40" as="geometry" />
        </mxCell>
        <mxCell id="UDLZSdtrr7WXOxklAURp-49" value="" style="endArrow=classic;html=1;rounded=0;exitX=1;exitY=0.3333333333333333;exitDx=0;exitDy=0;exitPerimeter=0;entryX=0.082;entryY=0.733;entryDx=0;entryDy=0;entryPerimeter=0;" parent="1" source="UDLZSdtrr7WXOxklAURp-34" target="UDLZSdtrr7WXOxklAURp-6" edge="1">
          <mxGeometry width="50" height="50" relative="1" as="geometry">
            <mxPoint x="55" y="280" as="sourcePoint" />
            <mxPoint x="340" y="360" as="targetPoint" />
          </mxGeometry>
        </mxCell>
        <mxCell id="UDLZSdtrr7WXOxklAURp-50" value="" style="endArrow=classic;html=1;rounded=0;entryX=0;entryY=0.5;entryDx=0;entryDy=0;" parent="1" target="UDLZSdtrr7WXOxklAURp-5" edge="1">
          <mxGeometry width="50" height="50" relative="1" as="geometry">
            <mxPoint x="70" y="260" as="sourcePoint" />
            <mxPoint x="224.79999999999995" y="130.92000000000007" as="targetPoint" />
          </mxGeometry>
        </mxCell>
        <mxCell id="UDLZSdtrr7WXOxklAURp-51" value="" style="endArrow=classic;html=1;rounded=0;entryX=0;entryY=0.5;entryDx=0;entryDy=0;" parent="1" target="UDLZSdtrr7WXOxklAURp-14" edge="1">
          <mxGeometry width="50" height="50" relative="1" as="geometry">
            <mxPoint x="70.2" y="259.08" as="sourcePoint" />
            <mxPoint x="210" y="120" as="targetPoint" />
          </mxGeometry>
        </mxCell>
        <mxCell id="UDLZSdtrr7WXOxklAURp-54" value="" style="endArrow=classic;html=1;rounded=0;entryX=1;entryY=0.5;entryDx=0;entryDy=0;exitX=0;exitY=0.3333333333333333;exitDx=0;exitDy=0;exitPerimeter=0;" parent="1" source="UDLZSdtrr7WXOxklAURp-4" target="UDLZSdtrr7WXOxklAURp-16" edge="1">
          <mxGeometry width="50" height="50" relative="1" as="geometry">
            <mxPoint x="750" y="300" as="sourcePoint" />
            <mxPoint x="558" y="358" as="targetPoint" />
          </mxGeometry>
        </mxCell>
        <mxCell id="UDLZSdtrr7WXOxklAURp-57" value="" style="endArrow=classic;html=1;rounded=0;entryX=1;entryY=0.5;entryDx=0;entryDy=0;" parent="1" target="UDLZSdtrr7WXOxklAURp-18" edge="1">
          <mxGeometry width="50" height="50" relative="1" as="geometry">
            <mxPoint x="741.3333740234375" y="290" as="sourcePoint" />
            <mxPoint x="390" y="480" as="targetPoint" />
          </mxGeometry>
        </mxCell>
        <mxCell id="UDLZSdtrr7WXOxklAURp-60" value="" style="endArrow=classic;html=1;rounded=0;entryX=0;entryY=0.5;entryDx=0;entryDy=0;" parent="1" target="UDLZSdtrr7WXOxklAURp-42" edge="1">
          <mxGeometry width="50" height="50" relative="1" as="geometry">
            <mxPoint x="70" y="520" as="sourcePoint" />
            <mxPoint x="239" y="595" as="targetPoint" />
          </mxGeometry>
        </mxCell>
      </root>
    </mxGraphModel>
  </diagram>
</mxfile>
